HIERARCHY
ROOT root
{
	OFFSET 0.000000 0.000000 0.000000
	CHANNELS 6 Xposition Yposition Zposition Zrotation Yrotation Xrotation
	JOINT lhip
	{
		OFFSET 0.058581 -0.082280 -0.017664
		CHANNELS 3 Zrotation Yrotation Xrotation
		JOINT lknee
		{
			OFFSET 0.043451 -0.386469 0.008037
			CHANNELS 3 Zrotation Yrotation Xrotation
			JOINT lankle
			{
				OFFSET -0.014790 -0.426874 -0.037428
				CHANNELS 3 Zrotation Yrotation Xrotation
				JOINT ltoe
				{
					OFFSET 0.041054 -0.060286 0.122042
					CHANNELS 3 Zrotation Yrotation Xrotation
					End Site
					{
						OFFSET 0.000000 0.000000 0.000000
					}
				}
			}
		}
	}
	JOINT rhip
	{
		OFFSET -0.060310 -0.090513 -0.013543
		CHANNELS 3 Zrotation Yrotation Xrotation
		JOINT rknee
		{
			OFFSET -0.043257 -0.383688 -0.004843
			CHANNELS 3 Zrotation Yrotation Xrotation
			JOINT rankle
			{
				OFFSET 0.019056 -0.420046 -0.034562
				CHANNELS 3 Zrotation Yrotation Xrotation
				JOINT rtoe
				{
					OFFSET -0.034840 -0.062106 0.130323
					CHANNELS 3 Zrotation Yrotation Xrotation
					End Site
					{
						OFFSET 0.000000 0.000000 0.000000
					}
				}
			}
		}
	}
	JOINT lowerback
	{
		OFFSET 0.004439 0.124404 -0.038385
		CHANNELS 3 Zrotation Yrotation Xrotation
		JOINT upperback
		{
			OFFSET 0.004488 0.137956 0.026820
			CHANNELS 3 Zrotation Yrotation Xrotation
			JOINT chest
			{
				OFFSET -0.002265 0.056032 0.002855
				CHANNELS 3 Zrotation Yrotation Xrotation
				JOINT lowerneck
				{
					OFFSET -0.013390 0.211636 -0.033468
					CHANNELS 3 Zrotation Yrotation Xrotation
					JOINT upperneck
					{
						OFFSET 0.010113 0.088937 0.050410
						CHANNELS 3 Zrotation Yrotation Xrotation
						End Site
						{
							OFFSET 0.000000 0.000000 0.000000
						}
					}
				}
				JOINT lclavicle
				{
					OFFSET 0.071702 0.114000 -0.018898
					CHANNELS 3 Zrotation Yrotation Xrotation
					JOINT lshoulder
					{
						OFFSET 0.122921 0.045205 -0.019046
						CHANNELS 3 Zrotation Yrotation Xrotation
						JOINT lelbow
						{
							OFFSET 0.255332 -0.015649 -0.022946
							CHANNELS 3 Zrotation Yrotation Xrotation
							JOINT lwrist
							{
								OFFSET 0.265709 0.012698 -0.007375
								CHANNELS 3 Zrotation Yrotation Xrotation
								End Site
								{
									OFFSET 0.000000 0.000000 0.000000
								}
							}
						}
					}
				}
				JOINT rclavicle
				{
					OFFSET -0.082954 0.112472 -0.023707
					CHANNELS 3 Zrotation Yrotation Xrotation
					JOINT rshoulder
					{
						OFFSET -0.113228 0.046853 -0.008472
						CHANNELS 3 Zrotation Yrotation Xrotation
						JOINT relbow
						{
							OFFSET -0.260127 -0.014369 -0.031269
							CHANNELS 3 Zrotation Yrotation Xrotation
							JOINT rwrist
							{
								OFFSET -0.269108 0.006794 -0.006027
								CHANNELS 3 Zrotation Yrotation Xrotation
								End Site
								{
									OFFSET 0.000000 0.000000 0.000000
								}
							}
						}
					}
				}
			}
		}
	}
}
MOTION
Frames: 8
Frame Time: 0.033333
-0.026594 0.945833 0.796011 22.579525 -2.069951 102.963845 19.819369 6.182290 19.117678 -1.831840 -6.254081 28.349252 -5.731820 14.174243 12.192883 0.000000 -0.000000 0.000000 -14.125817 -6.215159 -60.508053 2.996071 -21.155002 70.119847 -6.708608 -7.402990 -28.992855 0.000000 -0.000000 0.000000 5.132744 -14.171301 7.593060 2.704536 -3.960483 -0.405769 -0.245701 -6.044595 -6.384310 -0.843350 -1.539792 -17.200364 0.343152 -7.028458 -5.742618 -6.632403 -30.487572 -5.979644 -34.636366 -45.529265 -3.305464 21.768643 -17.114340 -17.971021 -1.841979 -0.865024 -9.546022 6.825283 27.481654 -4.792576 46.608861 37.982905 5.841519 -17.480462 19.425589 -7.888591 8.730283 2.445550 -7.889159 
-0.026305 0.893392 0.817464 20.600565 -2.682843 104.196694 18.926521 7.617406 19.420762 -5.384272 -9.679850 26.441019 -9.210480 9.917938 11.426054 0.000000 -0.000000 0.000000 -11.815084 -4.956495 -56.372281 3.895036 -19.189206 67.259095 -7.209153 -7.567275 -31.468975 0.000000 -0.000000 0.000000 5.388873 -13.333131 7.696600 1.664999 -3.728780 -3.456050 -0.164772 -5.095618 -6.033102 -1.957024 -1.506216 -17.319407 0.738901 -7.021612 -5.697049 0.932164 -33.824424 -11.805913 -23.339926 -46.434561 -10.225038 23.792667 -19.796115 -22.759010 3.369104 -3.501929 -9.223349 -0.941842 31.462034 -10.214894 37.895473 41.947183 0.155822 -19.538733 23.530276 -11.849637 1.877785 3.311222 -7.759744 
-0.027470 0.846828 0.847921 19.539794 -3.879217 106.028007 17.067302 8.914732 16.532409 -5.817169 -6.821197 27.076952 -9.406052 10.640130 11.157223 0.000000 -0.000000 0.000000 -9.825067 -3.817267 -51.697445 4.946202 -16.271066 60.866911 -7.548430 -9.341517 -31.245224 0.000000 -0.000000 0.000000 4.975274 -12.015576 7.096709 1.111471 -4.883795 -4.627197 0.130433 -4.466248 -6.605655 -2.934548 -2.956181 -16.915459 2.073957 -6.033901 -7.288790 9.609186 -36.277819 -16.928988 -12.183600 -44.031448 -17.386899 26.937555 -22.433246 -28.919310 9.535405 -6.697110 -6.279277 -11.007397 34.350862 -16.872757 28.509298 44.045003 -6.966306 -22.857349 26.615857 -19.285125 -1.631153 2.750738 -8.439513 
-0.024320 0.784127 0.899712 17.896840 -4.397781 106.758751 15.212208 10.368047 15.890622 -4.238166 -0.384671 27.021156 -7.661821 12.807544 8.959769 0.000000 -0.000000 0.000000 -6.922205 -2.196140 -41.272231 6.468128 -11.974060 48.015210 -6.846164 -10.971376 -27.745920 0.000000 -0.000000 0.000000 5.908014 -10.945417 6.835349 -0.154325 -5.463891 -5.498704 -0.200017 -3.492835 -7.303443 -3.721584 -6.020087 -15.760088 2.935879 -3.782728 -6.888957 18.166351 -36.293032 -21.866164 -4.102041 -42.092202 -22.773055 30.709507 -24.113375 -32.370001 15.169246 -10.908081 -3.158152 -22.732696 35.060207 -24.287158 20.997110 44.983375 -13.393837 -29.205048 27.005142 -27.113695 -6.398090 7.624611 1.460443 
-0.022219 0.744886 0.937624 17.406122 -5.086807 107.413793 13.208501 10.462532 14.990880 -4.493498 -0.794972 27.311933 -7.828058 12.124590 8.956592 0.000000 -0.000000 0.000000 -5.298724 -1.824335 -34.465654 6.157407 -8.225558 38.614798 -5.388620 -10.986369 -22.574370 0.000000 -0.000000 0.000000 5.462615 -9.717930 5.980244 -0.493853 -5.971706 -6.778575 0.004365 -3.181869 -6.447354 -4.100949 -7.285598 -15.037122 3.097228 -3.051132 -6.260153 21.758531 -35.143507 -24.473633 -2.526398 -43.448192 -24.384224 32.530085 -23.036871 -33.267069 20.536995 -12.614055 -2.667167 -27.821564 32.865313 -27.936920 19.804844 45.974347 -13.905823 -33.548035 27.694255 -30.237003 -8.599421 7.319826 3.248588 
-0.017629 0.692639 0.994388 17.063036 -5.590645 108.316309 10.638219 10.040594 13.236858 -4.478691 -1.133309 28.770449 -9.167588 10.211466 10.028087 0.000000 -0.000000 0.000000 -3.863567 -2.678771 -24.859067 5.517275 -4.509140 23.624176 -1.879125 -9.508469 -9.966066 0.000000 -0.000000 0.000000 5.583286 -7.656082 4.842672 -0.805002 -6.623181 -8.289671 0.357913 -3.339214 -5.985618 -5.375463 -9.517822 -13.160914 3.335030 -1.043311 -5.751314 24.542247 -34.326845 -26.150135 -0.381010 -44.774483 -26.585078 33.934257 -21.787098 -34.284049 20.276509 -12.855060 -1.327934 -32.096872 30.740795 -29.921117 15.372453 47.364202 -16.400671 -35.989352 27.854918 -31.334851 -7.976597 8.447384 5.427351 
-0.014791 0.640005 1.051553 16.500205 -6.035668 109.829224 7.959528 7.465865 11.048833 -4.145865 2.380867 30.393431 -9.498963 10.884671 11.109532 0.000000 -0.000000 0.000000 -3.686814 -2.899384 -17.966312 4.284550 -3.500492 9.814692 4.359693 -8.967378 8.186017 0.000000 -0.000000 0.000000 5.562810 -5.799768 2.090550 -1.002467 -7.180871 -7.487221 0.152533 -3.286764 -6.575860 -6.586442 -11.336003 -11.064896 3.977892 0.646365 -6.520442 26.216515 -34.111129 -25.682857 3.681580 -44.816357 -29.385049 34.085937 -19.821360 -34.596226 17.925359 -14.542746 0.478057 -34.372879 29.932080 -29.776904 8.384239 48.356734 -20.308249 -36.922684 25.824503 -31.000208 -6.911133 9.851592 7.046955 
-0.014139 0.590447 1.102312 14.448493 -5.995146 111.556608 5.786952 5.539409 8.648564 -4.013651 6.753155 33.359909 -7.278148 12.472611 11.253982 0.000000 -0.000000 0.000000 -3.683819 -3.058062 -15.217503 2.386141 -5.338985 2.612759 10.873614 -11.345062 22.188154 0.000000 -0.000000 0.000000 4.720416 -4.196947 -0.268599 -0.860506 -6.888245 -7.036592 0.190996 -2.398821 -7.440270 -7.239090 -12.748989 -7.409585 4.255049 1.510741 -8.252888 28.348246 -34.147770 -24.736061 6.457937 -43.961604 -31.163854 33.278273 -16.642236 -33.249745 13.926370 -15.188349 3.183072 -36.337993 30.002001 -29.276336 1.021157 48.147062 -25.315652 -33.966047 22.632588 -29.725357 -3.852591 7.709297 3.885653 
